<?xml version="1.0" encoding="UTF-8"?>
<!DOCTYPE svg PUBLIC "-//W3C//DTD SVG 1.1//EN" "http://www.w3.org/Graphics/SVG/1.1/DTD/svg11.dtd">
<svg xmlns="http://www.w3.org/2000/svg" xml:space="preserve" width="512px" height="332px" version="1.1" style="shape-rendering:geometricPrecision; text-rendering:geometricPrecision; image-rendering:optimizeQuality; fill-rule:evenodd; clip-rule:evenodd"
viewBox="0 0 512 332"
 xmlns:xlink="http://www.w3.org/1999/xlink">
 <defs>
  <style type="text/css">
   <![CDATA[
    .fil9 {fill:#FEFEFE}
    .fil0 {fill:#49CAEE}
    .fil6 {fill:#FEFEFE;fill-rule:nonzero}
    .fil7 {fill:#2566AF;fill-rule:nonzero}
    .fil1 {fill:#2A8BEA;fill-rule:nonzero}
    .fil8 {fill:#E6A540;fill-rule:nonzero}
    .fil3 {fill:#F53D5C;fill-rule:nonzero}
    .fil2 {fill:#FF9E07;fill-rule:nonzero}
    .fil5 {fill:#A3601C;fill-rule:nonzero}
    .fil4 {fill:url(#id0);fill-rule:nonzero}
   ]]>
  </style>
  <linearGradient id="id0" gradientUnits="userSpaceOnUse" x1="134.53" y1="118.57" x2="-4.81" y2="119.63">
   <stop offset="0" style="stop-opacity:1; stop-color:#FF8E28"/>
   <stop offset="0.258824" style="stop-opacity:1; stop-color:#B8823F"/>
   <stop offset="0.458824" style="stop-opacity:1; stop-color:#EBD187"/>
   <stop offset="0.729412" style="stop-opacity:1; stop-color:#8E4B0C"/>
   <stop offset="1" style="stop-opacity:1; stop-color:#FFB657"/>
  </linearGradient>
 </defs>
 <g id="Layer_x0020_1">
  <metadata id="CorelCorpID_0Corel-Layer"/>
  <g id="_2300939588448">
   <path class="fil0" d="M512 308.64c0,12.39 -10.14,22.52 -22.52,22.52l-466.96 0c-12.39,0 -22.52,-10.13 -22.52,-22.52l0 -285.28c0,-12.39 10.13,-22.52 22.52,-22.52l466.96 0c12.38,0 22.52,10.13 22.52,22.52l0 285.28z"/>
   <path class="fil1" d="M411.62 331.16c0.8,-45.14 37.63,-81.48 82.96,-81.48 5.97,0 11.8,0.63 17.42,1.83l0 57.13c0,12.39 -10.14,22.52 -22.52,22.52l-77.86 0z"/>
   <path class="fil2" d="M493.72 1.24c-6.52,59.06 -56.57,104.99 -117.37,104.99 -60.93,0 -111.08,-46.14 -117.41,-105.39l230.54 0c1.45,0 2.87,0.14 4.24,0.4z"/>
   <path class="fil3" d="M195.92 329.03c0,0.72 -0.01,1.42 -0.02,2.13l-173.38 0c-12.39,0 -22.52,-10.13 -22.52,-22.52l0 -116.84c15.58,-5.67 32.39,-8.76 49.92,-8.76 80.64,0 146,65.36 146,145.99z"/>
   <g>
    <path class="fil4" d="M52.05 104.01c0,-8.46 6.86,-15.31 15.32,-15.31l39.98 0c8.45,0 15.31,6.85 15.31,15.31l0 29.85c0,8.45 -6.86,15.31 -15.31,15.31l-39.98 0c-8.46,0 -15.32,-6.86 -15.32,-15.31l0 -29.85z"/>
    <g>
     <g>
      <polygon class="fil5" points="103.1,113.56 101.83,113.56 101.83,88.7 103.1,88.7 "/>
     </g>
     <g>
      <path class="fil5" d="M122.54 102.11l-52.82 0 0 -1.28 52.61 0c0.09,0.42 0.16,0.85 0.21,1.28z"/>
     </g>
     <g>
      <polygon class="fil5" points="87.25,101.3 85.97,101.3 85.97,88.7 87.25,88.7 "/>
     </g>
     <g>
      <polygon class="fil5" points="85.97,149.17 85.97,134.04 87.25,134.04 87.25,149.17 "/>
     </g>
     <g>
      <polygon class="fil5" points="101.28,149.17 101.28,134.04 102.56,134.04 102.56,149.17 "/>
     </g>
     <g>
      <polygon class="fil5" points="122.66,113.58 102.68,113.58 102.68,112.3 122.66,112.3 "/>
     </g>
     <g>
      <path class="fil5" d="M122.64 134.68l-51.61 0 0 -1.27 51.63 0 0 0.45c0,0.27 -0.01,0.55 -0.02,0.82z"/>
     </g>
     <g>
      <path class="fil5" d="M71.03 102.11l-18.86 0c0.05,-0.43 0.13,-0.86 0.21,-1.28l18.65 0 0 1.28z"/>
     </g>
     <g>
      <polygon class="fil5" points="71.03,113.01 52.05,113.01 52.05,111.73 71.03,111.73 "/>
     </g>
     <g>
      <path class="fil5" d="M71.03 134.68l-18.95 0c-0.02,-0.27 -0.03,-0.55 -0.03,-0.82l0 -0.45 18.98 0 0 1.27z"/>
     </g>
     <g>
      <polygon class="fil5" points="71.03,124.58 52.05,124.58 52.05,123.3 71.03,123.3 "/>
     </g>
     <g>
      <polygon class="fil5" points="70.39,149.17 70.39,88.7 71.67,88.7 71.67,149.17 "/>
     </g>
    </g>
   </g>
   <g>
    <g>
     <path class="fil6" d="M143.28 120.76c-1.01,1.01 -2.65,1.01 -3.66,-0.01 -1.01,-1 -1.01,-2.64 0,-3.66 1.01,-1 2.65,-1.01 3.66,0 1.02,1.01 1.01,2.66 0,3.67z"/>
     <path class="fil6" d="M146.87 127.8l-2.41 -2.41c1.69,-1.75 2.62,-4.04 2.62,-6.47 0,-2.43 -0.92,-4.71 -2.6,-6.45l2.41 -2.41c4.79,4.93 4.78,12.81 -0.02,17.74z"/>
     <path class="fil6" d="M151.56 132.49l-2.4 -2.4c6.06,-6.2 6.07,-16.13 0.02,-22.32l2.41 -2.4c7.37,7.51 7.36,19.6 -0.03,27.12z"/>
    </g>
   </g>
   <g>
    <path class="fil7" d="M403.98 306.1l-12.09 0 7.56 -46.45 12.09 0 -7.56 46.45zm-22.26 -46.45l-11.53 31.95 -1.36 -6.88 0 0 -4.07 -20.88c0,0 -0.49,-4.19 -5.74,-4.19l-19.06 0 -0.22 0.79c0,0 5.83,1.21 12.65,5.31l10.5 40.35 12.6 0 19.24 -46.45 -13.01 0zm95.1 46.45l11.11 0 -9.68 -46.45 -9.72 0c-4.49,0 -5.58,3.46 -5.58,3.46l-18.04 42.99 12.61 0 2.52 -6.9 15.37 0 1.41 6.9zm-13.3 -16.43l6.35 -17.38 3.58 17.38 -9.93 0zm-17.66 -18.85l1.72 -9.97c0,0 -5.32,-2.03 -10.87,-2.03 -6,0 -20.25,2.63 -20.25,15.38 0,12 16.72,12.15 16.72,18.45 0,6.3 -15,5.17 -19.95,1.2l-1.8 10.43c0,0 5.4,2.62 13.65,2.62 8.25,0 20.7,-4.27 20.7,-15.9 0,-12.08 -16.87,-13.2 -16.87,-18.45 0,-5.25 11.77,-4.58 16.95,-1.73l0 0z"/>
   </g>
   <path class="fil8" d="M368.83 284.72l-4.07 -20.89c0,0 -0.49,-4.18 -5.74,-4.18l-19.06 0 -0.22 0.79c0,0 9.16,1.9 17.95,9.01 8.4,6.8 11.14,15.27 11.14,15.27l0 0z"/>
   <path class="fil9" d="M78.89 21.8c8.69,0 15.74,7.05 15.74,15.74 0,8.7 -7.05,15.74 -15.74,15.74 -8.69,0 -15.74,-7.04 -15.74,-15.74 0,-8.69 7.05,-15.74 15.74,-15.74zm0 3.99c6.49,0 11.76,5.26 11.76,11.75 0,6.5 -5.27,11.76 -11.76,11.76 -6.5,0 -11.76,-5.26 -11.76,-11.76 0,-6.49 5.26,-11.75 11.76,-11.75z"/>
   <path class="fil9" d="M94.39 40.39c0.02,-0.02 -1.83,-2.39 -1.81,-2.41 1,-0.8 0.95,-1.04 3.4,-3.6 0.67,-0.7 1.43,-1.48 1.43,-1.48 0.31,-0.33 0.71,-0.74 1.3,-1.31 0.89,-0.87 1.01,-0.98 1.48,-1.47 0.73,-0.75 1.09,-1.12 1.29,-1.41 0.21,-0.29 0.48,-0.77 0.65,-1.46 0.06,-0.33 0.13,-0.83 0.04,-1.44 -0.06,-0.42 -0.27,-1.39 -1.09,-2.23 -0.14,-0.13 -0.68,-0.67 -1.59,-0.99 -0.09,-0.03 -0.72,-0.24 -1.52,-0.24 -0.58,0 -1.26,0.12 -1.9,0.49 -0.45,0.27 -0.95,0.8 -1.06,0.91 -0.71,0.69 -2.37,2.33 -4.73,4.68 -0.02,0.03 -0.05,0.05 -0.08,0.08 -0.07,0.07 -1.79,-3.43 -1.86,-3.36 2.02,-2 3.48,-3.44 4.27,-4.21 0.22,-0.21 1.13,-1.18 1.94,-1.67 1.17,-0.68 2.42,-0.89 3.49,-0.9 1.47,0 2.61,0.38 2.78,0.44 1.66,0.58 2.66,1.57 2.91,1.81 1.5,1.53 1.88,3.32 2,4.09 0.16,1.11 0.04,2.03 -0.08,2.63 -0.31,1.27 -0.8,2.13 -1.18,2.68 -0.36,0.52 -1.03,1.21 -2.36,2.58 -0.88,0.9 -1.08,1.1 -2.71,2.68 -1.08,1.04 -1.83,1.81 -2.39,2.4 0,0 -1.39,1.43 -2.62,2.71z"/>
   <path class="fil9" d="M64.13 33.43c-0.03,0.02 1.83,2.39 1.81,2.41 -1.01,0.8 -0.95,1.04 -3.4,3.6 -0.67,0.7 -1.44,1.48 -1.44,1.48 -0.3,0.33 -0.71,0.74 -1.3,1.32 -0.89,0.86 -1,0.97 -1.48,1.46 -0.73,0.75 -1.09,1.13 -1.29,1.41 -0.21,0.3 -0.47,0.77 -0.64,1.46 -0.07,0.33 -0.14,0.83 -0.05,1.44 0.07,0.42 0.28,1.39 1.1,2.23 0.13,0.14 0.68,0.67 1.59,0.99 0.09,0.03 0.71,0.24 1.51,0.24 0.59,0 1.27,-0.12 1.91,-0.49 0.44,-0.27 0.94,-0.8 1.06,-0.91 0.7,-0.69 2.36,-2.33 4.72,-4.68 0.03,-0.02 0.06,-0.05 0.09,-0.08 0.07,-0.07 1.78,3.44 1.85,3.36 -2.01,2 -3.47,3.44 -4.26,4.21 -0.22,0.21 -1.14,1.19 -1.95,1.67 -1.17,0.69 -2.41,0.89 -3.49,0.9 -1.46,0 -2.61,-0.38 -2.78,-0.44 -1.66,-0.58 -2.66,-1.56 -2.9,-1.81 -1.5,-1.53 -1.89,-3.31 -2,-4.08 -0.17,-1.11 -0.05,-2.04 0.08,-2.64 0.3,-1.27 0.79,-2.13 1.18,-2.68 0.36,-0.52 1.02,-1.2 2.35,-2.58 0.88,-0.9 1.09,-1.1 2.72,-2.68 1.08,-1.04 1.82,-1.81 2.38,-2.4 0,0 1.4,-1.43 2.63,-2.71z"/>
   <polygon class="fil9" points="86.92,27.28 68.26,46.44 71.11,49.09 89.15,30.21 "/>
   <polygon class="fil9" points="83.05,42.69 95.37,42.69 95.37,45.33 90.71,45.33 90.71,54.42 87.68,54.42 87.68,45.31 83.05,45.31 "/>
   <polygon class="fil9" points="99.81,42.69 102.86,42.69 102.86,54.42 99.81,54.42 "/>
   <polygon class="fil9" points="107.51,42.7 110.73,42.7 110.73,47.16 112.9,47.16 116.63,42.7 119.65,42.7 119.65,43.41 115.31,48.54 119.65,53.87 119.65,54.4 116.65,54.4 112.88,49.97 110.73,49.97 110.73,54.4 107.51,54.4 "/>
   <path class="fil9" d="M142.55 49.55l3.63 0 0 -0.38 -1.82 -3.58 -1.81 3.58 0 0.38zm0.17 -6.85l3.23 0 5.28 11.13 0 0.58 -2.83 0 -1.02 -2.21 -6.06 0 -1.01 2.21 -2.82 0 0 -0.6 5.23 -11.11z"/>
   <polygon class="fil9" points="122.9,42.7 126.12,42.7 126.12,47.16 128.29,47.16 132.02,42.7 135.04,42.7 135.04,43.41 130.7,48.54 135.04,53.87 135.04,54.4 132.04,54.4 128.27,49.97 126.12,49.97 126.12,54.4 122.9,54.4 "/>
  </g>
 </g>
</svg>
