<?xml version="1.0" encoding="UTF-8"?>
<!DOCTYPE svg PUBLIC "-//W3C//DTD SVG 1.1//EN" "http://www.w3.org/Graphics/SVG/1.1/DTD/svg11.dtd">
<svg xmlns="http://www.w3.org/2000/svg" xml:space="preserve" width="512px" height="332px" version="1.1" style="shape-rendering:geometricPrecision; text-rendering:geometricPrecision; image-rendering:optimizeQuality; fill-rule:evenodd; clip-rule:evenodd"
viewBox="0 0 512 332"
 xmlns:xlink="http://www.w3.org/1999/xlink">
 <defs>
  <style type="text/css">
   <![CDATA[
    .fil10 {fill:#FEFEFE}
    .fil0 {fill:#49CAEE}
    .fil6 {fill:#FEFEFE;fill-rule:nonzero}
    .fil1 {fill:#2A8BEA;fill-rule:nonzero}
    .fil8 {fill:#EB001B;fill-rule:nonzero}
    .fil3 {fill:#F53D5C;fill-rule:nonzero}
    .fil9 {fill:#F79E1B;fill-rule:nonzero}
    .fil7 {fill:#FF5F00;fill-rule:nonzero}
    .fil2 {fill:#FF9E07;fill-rule:nonzero}
    .fil5 {fill:#A3601C;fill-rule:nonzero}
    .fil4 {fill:url(#id0);fill-rule:nonzero}
   ]]>
  </style>
  <linearGradient id="id0" gradientUnits="userSpaceOnUse" x1="134.53" y1="118.58" x2="-4.81" y2="119.63">
   <stop offset="0" style="stop-opacity:1; stop-color:#FF8E28"/>
   <stop offset="0.258824" style="stop-opacity:1; stop-color:#B8823F"/>
   <stop offset="0.458824" style="stop-opacity:1; stop-color:#EBD187"/>
   <stop offset="0.729412" style="stop-opacity:1; stop-color:#8E4B0C"/>
   <stop offset="1" style="stop-opacity:1; stop-color:#FFB657"/>
  </linearGradient>
 </defs>
 <g id="Layer_x0020_1">
  <metadata id="CorelCorpID_0Corel-Layer"/>
  <g id="_2300935510256">
   <path class="fil0" d="M512 308.64c0,12.39 -10.13,22.52 -22.52,22.52l-466.96 0c-12.39,0 -22.52,-10.13 -22.52,-22.52l0 -285.28c0,-12.39 10.13,-22.52 22.52,-22.52l466.96 0c12.39,0 22.52,10.13 22.52,22.52l0 285.28z"/>
   <path class="fil1" d="M411.62 331.16c0.8,-45.14 37.63,-81.48 82.96,-81.48 5.97,0 11.8,0.63 17.42,1.84l0 57.12c0,12.39 -10.13,22.52 -22.52,22.52l-77.86 0z"/>
   <path class="fil2" d="M493.72 1.24c-6.52,59.06 -56.57,104.99 -117.37,104.99 -60.93,0 -111.08,-46.14 -117.41,-105.39l230.54 0c1.45,0 2.87,0.14 4.24,0.4z"/>
   <path class="fil3" d="M195.92 329.04c0,0.71 -0.01,1.41 -0.02,2.12l-173.38 0c-12.39,0 -22.52,-10.13 -22.52,-22.52l0 -116.84c15.58,-5.67 32.39,-8.76 49.92,-8.76 80.64,0 146,65.36 146,146z"/>
   <g>
    <path class="fil4" d="M52.05 104.01c0,-8.46 6.86,-15.31 15.32,-15.31l39.98 0c8.45,0 15.31,6.85 15.31,15.31l0 29.85c0,8.45 -6.86,15.31 -15.31,15.31l-39.98 0c-8.46,0 -15.32,-6.86 -15.32,-15.31l0 -29.85z"/>
    <g>
     <g>
      <polygon class="fil5" points="103.1,113.57 101.83,113.57 101.83,88.7 103.1,88.7 "/>
     </g>
     <g>
      <path class="fil5" d="M122.54 102.11l-52.82 0 0 -1.28 52.61 0c0.09,0.42 0.16,0.85 0.21,1.28z"/>
     </g>
     <g>
      <polygon class="fil5" points="87.25,101.3 85.97,101.3 85.97,88.7 87.25,88.7 "/>
     </g>
     <g>
      <polygon class="fil5" points="85.97,149.17 85.97,134.04 87.25,134.04 87.25,149.17 "/>
     </g>
     <g>
      <polygon class="fil5" points="101.28,149.17 101.28,134.04 102.56,134.04 102.56,149.17 "/>
     </g>
     <g>
      <polygon class="fil5" points="122.66,113.58 102.68,113.58 102.68,112.3 122.66,112.3 "/>
     </g>
     <g>
      <path class="fil5" d="M122.64 134.68l-51.61 0 0 -1.27 51.63 0 0 0.45c0,0.27 -0.01,0.55 -0.02,0.82z"/>
     </g>
     <g>
      <path class="fil5" d="M71.03 102.11l-18.86 0c0.05,-0.43 0.13,-0.86 0.21,-1.28l18.65 0 0 1.28z"/>
     </g>
     <g>
      <polygon class="fil5" points="71.03,113.01 52.05,113.01 52.05,111.73 71.03,111.73 "/>
     </g>
     <g>
      <path class="fil5" d="M71.03 134.68l-18.95 0c-0.02,-0.27 -0.03,-0.55 -0.03,-0.82l0 -0.45 18.98 0 0 1.27z"/>
     </g>
     <g>
      <polygon class="fil5" points="71.03,124.58 52.05,124.58 52.05,123.3 71.03,123.3 "/>
     </g>
     <g>
      <polygon class="fil5" points="70.39,149.17 70.39,88.7 71.67,88.7 71.67,149.17 "/>
     </g>
    </g>
   </g>
   <g>
    <g>
     <path class="fil6" d="M143.28 120.76c-1.01,1.01 -2.65,1.01 -3.66,0 -1.01,-1.01 -1.01,-2.65 0,-3.67 1.01,-1 2.65,-1.01 3.66,0 1.02,1.01 1.01,2.66 0,3.67z"/>
     <path class="fil6" d="M146.87 127.8l-2.41 -2.41c1.69,-1.75 2.62,-4.04 2.62,-6.47 0.01,-2.43 -0.92,-4.71 -2.6,-6.45l2.41 -2.41c4.79,4.93 4.78,12.81 -0.02,17.74z"/>
     <path class="fil6" d="M151.56 132.49l-2.4 -2.4c6.06,-6.2 6.07,-16.13 0.02,-22.32l2.41 -2.4c7.37,7.51 7.36,19.6 -0.03,27.12z"/>
    </g>
   </g>
   <g>
    <polygon class="fil7" points="451.64,310.16 425.06,310.16 425.06,262.4 451.64,262.4 "/>
    <path class="fil8" d="M426.75 286.28c0,-9.68 4.53,-18.31 11.6,-23.88 -5.33,-4.2 -11.94,-6.49 -18.73,-6.49 -0.01,0 -0.03,0 -0.04,0 -16.78,0 -30.37,13.6 -30.37,30.37 0,16.78 13.59,30.38 30.37,30.38 0.01,0 0.03,0 0.04,0 6.79,0 13.4,-2.29 18.73,-6.49 -7.07,-5.57 -11.6,-14.2 -11.6,-23.89z"/>
    <g>
     <path class="fil9" d="M487.49 286.28c0,16.78 -13.59,30.38 -30.37,30.38 -0.01,0 -0.03,0 -0.04,0 -6.8,0 -13.4,-2.29 -18.73,-6.49 7.06,-5.57 11.6,-14.19 11.6,-23.88 0,-9.69 -4.54,-18.32 -11.6,-23.88 5.33,-4.21 11.93,-6.5 18.73,-6.5 0.01,0 0.03,0 0.04,0 16.78,0 30.37,13.6 30.37,30.37l0 0zm0 0l0 0 0 0z"/>
    </g>
   </g>
   <path class="fil10" d="M78.84 21.74c8.7,0 15.74,7.05 15.74,15.74 0,8.7 -7.04,15.75 -15.74,15.75 -8.69,0 -15.74,-7.05 -15.74,-15.75 0,-8.69 7.05,-15.74 15.74,-15.74zm0 3.99c6.5,0 11.76,5.26 11.76,11.75 0,6.5 -5.26,11.76 -11.76,11.76 -6.49,0 -11.75,-5.26 -11.75,-11.76 0,-6.49 5.26,-11.75 11.75,-11.75z"/>
   <path class="fil10" d="M94.34 40.33c0.02,-0.02 -1.83,-2.39 -1.81,-2.4 1.01,-0.81 0.95,-1.05 3.4,-3.61 0.67,-0.7 1.44,-1.48 1.44,-1.48 0.3,-0.33 0.71,-0.74 1.3,-1.31 0.89,-0.87 1,-0.97 1.48,-1.47 0.73,-0.75 1.09,-1.12 1.29,-1.41 0.21,-0.29 0.47,-0.77 0.64,-1.46 0.07,-0.32 0.13,-0.83 0.04,-1.44 -0.06,-0.42 -0.27,-1.39 -1.09,-2.23 -0.13,-0.13 -0.68,-0.67 -1.59,-0.99 -0.09,-0.03 -0.71,-0.24 -1.51,-0.24 -0.59,0.01 -1.27,0.12 -1.91,0.5 -0.44,0.26 -0.94,0.79 -1.06,0.91 -0.7,0.68 -2.36,2.33 -4.72,4.67 -0.03,0.03 -0.06,0.06 -0.09,0.08 -0.07,0.07 -1.78,-3.43 -1.86,-3.36 2.02,-2 3.48,-3.44 4.27,-4.21 0.22,-0.21 1.14,-1.18 1.95,-1.66 1.17,-0.69 2.41,-0.9 3.48,-0.91 1.47,0 2.62,0.38 2.78,0.44 1.67,0.58 2.67,1.57 2.91,1.81 1.5,1.53 1.89,3.32 2,4.09 0.17,1.11 0.04,2.04 -0.08,2.63 -0.3,1.27 -0.79,2.13 -1.18,2.68 -0.36,0.52 -1.02,1.21 -2.35,2.58 -0.88,0.9 -1.09,1.1 -2.72,2.68 -1.08,1.05 -1.82,1.81 -2.38,2.4 0,0 -1.4,1.43 -2.63,2.71z"/>
   <path class="fil10" d="M64.08 33.37c-0.02,0.02 1.83,2.39 1.81,2.41 -1,0.8 -0.95,1.04 -3.4,3.6 -0.67,0.71 -1.43,1.48 -1.43,1.48 -0.31,0.33 -0.71,0.75 -1.3,1.32 -0.89,0.86 -1.01,0.97 -1.49,1.46 -0.72,0.75 -1.08,1.13 -1.28,1.41 -0.21,0.3 -0.48,0.77 -0.65,1.46 -0.06,0.33 -0.13,0.83 -0.04,1.44 0.06,0.42 0.27,1.4 1.09,2.23 0.13,0.14 0.68,0.67 1.59,0.99 0.09,0.03 0.72,0.24 1.52,0.24 0.58,0 1.26,-0.12 1.9,-0.49 0.45,-0.26 0.95,-0.8 1.06,-0.91 0.71,-0.69 2.37,-2.33 4.73,-4.68 0.02,-0.02 0.05,-0.05 0.08,-0.08 0.07,-0.07 1.78,3.44 1.86,3.36 -2.02,2 -3.48,3.44 -4.27,4.21 -0.22,0.21 -1.13,1.19 -1.95,1.67 -1.16,0.69 -2.41,0.9 -3.48,0.9 -1.47,0 -2.61,-0.38 -2.78,-0.44 -1.66,-0.58 -2.66,-1.56 -2.91,-1.81 -1.5,-1.53 -1.88,-3.31 -2,-4.08 -0.16,-1.11 -0.04,-2.04 0.08,-2.64 0.31,-1.27 0.8,-2.13 1.18,-2.68 0.36,-0.52 1.03,-1.2 2.36,-2.57 0.88,-0.91 1.08,-1.11 2.71,-2.68 1.08,-1.05 1.82,-1.81 2.38,-2.41 0,0 1.4,-1.43 2.63,-2.71z"/>
   <polygon class="fil10" points="86.87,27.22 68.22,46.38 71.06,49.03 89.11,30.15 "/>
   <polygon class="fil10" points="83,42.63 95.32,42.63 95.32,45.27 90.66,45.27 90.66,54.36 87.64,54.36 87.64,45.25 83,45.25 "/>
   <polygon class="fil10" points="99.76,42.63 102.82,42.63 102.82,54.36 99.76,54.36 "/>
   <polygon class="fil10" points="107.46,42.65 110.69,42.65 110.69,47.1 112.85,47.1 116.58,42.65 119.6,42.65 119.6,43.35 115.26,48.48 119.6,53.81 119.6,54.34 116.61,54.34 112.84,49.91 110.69,49.91 110.69,54.34 107.46,54.34 "/>
   <path class="fil10" d="M142.5 49.49l3.64 0 0 -0.38 -1.83 -3.57 -1.81 3.57 0 0.38zm0.17 -6.85l3.23 0 5.29 11.13 0 0.58 -2.83 0 -1.03 -2.21 -6.06 0 -1.01 2.21 -2.82 0 0 -0.6 5.23 -11.11z"/>
   <polygon class="fil10" points="122.85,42.65 126.08,42.65 126.08,47.1 128.24,47.1 131.97,42.65 134.99,42.65 134.99,43.35 130.65,48.48 134.99,53.81 134.99,54.34 132,54.34 128.23,49.91 126.08,49.91 126.08,54.34 122.85,54.34 "/>
  </g>
 </g>
</svg>
