<?xml version="1.0" encoding="UTF-8"?>
<!DOCTYPE svg PUBLIC "-//W3C//DTD SVG 1.1//EN" "http://www.w3.org/Graphics/SVG/1.1/DTD/svg11.dtd">
<svg xmlns="http://www.w3.org/2000/svg" xml:space="preserve" width="512px" height="332px" version="1.1" style="shape-rendering:geometricPrecision; text-rendering:geometricPrecision; image-rendering:optimizeQuality; fill-rule:evenodd; clip-rule:evenodd"
viewBox="0 0 512 332"
 xmlns:xlink="http://www.w3.org/1999/xlink">
 <defs>
  <style type="text/css">
   <![CDATA[
    .fil0 {fill:#49CAEE}
    .fil5 {fill:#FEFEFE}
    .fil1 {fill:#2A8BEA;fill-rule:nonzero}
    .fil3 {fill:#F53D5C;fill-rule:nonzero}
    .fil2 {fill:#FF9E07;fill-rule:nonzero}
    .fil4 {fill:url(#id0)}
   ]]>
  </style>
  <linearGradient id="id0" gradientUnits="userSpaceOnUse" x1="512" y1="136.6" x2="0" y2="136.6">
   <stop offset="0" style="stop-opacity:1; stop-color:#031752"/>
   <stop offset="1" style="stop-opacity:1; stop-color:#005FCC"/>
  </linearGradient>
 </defs>
 <g id="Layer_x0020_1">
  <metadata id="CorelCorpID_0Corel-Layer"/>
  <g id="_2301096047040">
   <g>
    <path class="fil0" d="M0 308.64c0,12.39 10.13,22.52 22.52,22.52l466.96 0c12.38,0 22.52,-10.13 22.52,-22.52l0 -285.28c0,-12.39 -10.14,-22.52 -22.52,-22.52l-466.96 0c-12.39,0 -22.52,10.13 -22.52,22.52l0 285.28z"/>
    <path class="fil1" d="M100.38 331.16c-0.8,-45.14 -37.63,-81.48 -82.96,-81.48 -5.97,0 -11.8,0.63 -17.42,1.84l0 57.12c0,12.39 10.13,22.52 22.52,22.52l77.86 0z"/>
    <path class="fil2" d="M18.28 1.24c6.52,59.06 56.57,105 117.37,105 60.93,0 111.08,-46.15 117.41,-105.4l-230.54 0c-1.45,0 -2.87,0.14 -4.24,0.4z"/>
    <path class="fil3" d="M316.08 329.03c0,0.72 0.01,1.42 0.02,2.13l173.38 0c12.38,0 22.52,-10.13 22.52,-22.52l0 -116.84c-15.58,-5.67 -32.39,-8.76 -49.92,-8.76 -80.64,0 -146,65.36 -146,145.99z"/>
   </g>
   <g>
    <polygon class="fil4" points="198,108.94 0,108.95 0,164.19 123,164.18 136.31,164.18 151.4,164.18 162.02,164.18 181.56,164.17 191.5,164.18 201.8,164.18 216.39,164.17 231.01,164.17 245.45,164.18 256.62,164.18 266.5,164.18 278.5,164.18 290.56,164.17 303.58,164.18 316,164.19 330.15,164.18 347.62,164.18 351.79,164.25 359.5,164.19 374.62,164.19 384.62,164.19 394.5,164.19 409.56,164.19 424.55,164.2 440.19,164.22 441.85,164.23 462.62,164.17 477.69,164.17 512,164.17 512,138.64 512,128.56 512,113.8 512,108.97 499.55,108.95 485.56,108.95 470.5,108.95 460.62,108.95 449.62,108.95 435.5,108.95 423.62,108.95 406.15,108.94 391,108.94 379.58,108.95 365.56,108.95 354.5,108.95 342.5,108.95 331.62,108.95 321.45,108.95 306,108.95 292.39,108.95 277.8,108.94 267.5,108.95 256.56,108.95 238.02,108.94 227.4,108.95 212.31,108.95 "/>
    <path class="fil5" d="M354.05 223.06l24.58 -0.34 0.64 -14.41 -0.01 -16.32 -1.26 0 -346 0c0.74,7.07 -0.26,25.1 1.41,30.77l320.64 0.3z"/>
   </g>
  </g>
 </g>
</svg>
